<svg height="1137" viewBox="0 0 2248 1137" width="2248" xmlns="http://www.w3.org/2000/svg"><g fill="#fff"><g><path d="m1304.799072 499.969116h164.945313c-3.328614 90.954956-84.911011 183.656616-107.411133 201.656616-22.5 17.999878-116.683716 79.166748-222.534302 79.166748-99.264404 0-180.380737-25.388427-243.189941-76.2229-82.740967-66.822388-124.073792-157.773926-124.073792-272.797119 0-117.65686 41.332825-209.928467 124.073792-276.812012 62.809204-50.773437 143.925537-76.2229 243.189941-76.2229 99.255371 0 188.034302 57.388183 227.034424 94.888183 38.999878 37.5 97.192261 112.173829 100.520752 187.018799h-164.945068s-27.825806-58.768799-62.325806-84.268921c-34.5-25.499878-100.284302-29.748413-100.284302-29.748413s-189.68042-11.208252-189.822998 185.145264c-.1427 196.353271 189.822998 189.463745 189.822998 189.463745s62.784302-4.589722 98.784424-31.475098c35.999878-26.885376 66.215698-89.791992 66.215698-89.791992z"/><path d="m1304.799072 499.969116h164.945313c-3.328614 90.954956-84.911011 183.656616-107.411133 201.656616-22.5 17.999878-116.683716 79.166748-222.534302 79.166748-99.264404 0-180.380737-25.388427-243.189941-76.2229-82.740967-66.822388-124.073792-157.773926-124.073792-272.797119 0-117.65686 41.332825-209.928467 124.073792-276.812012 62.809204-50.773437 143.925537-76.2229 243.189941-76.2229 99.255371 0 188.034302 57.388183 227.034424 94.888183 38.999878 37.5 97.192261 112.173829 100.520752 187.018799h-164.945068s-27.825806-58.768799-62.325806-84.268921c-34.5-25.499878-100.284302-29.748413-100.284302-29.748413s-189.68042-11.208252-189.822998 185.145264c-.1427 196.353271 189.822998 189.463745 189.822998 189.463745s62.784302-4.589722 98.784424-31.475098c35.999878-26.885376 66.215698-89.791992 66.215698-89.791992z"/><path d="m213.441986 829.413452h-212.03331l218.151566-824.090942h212.033325z"/><path d="m501.324463 829.187012h-212.033325l218.15155-824.090821h212.033264z"/><path d="m2027.215332 826.891357h-212.033203l218.151611-824.09082h212.033203z"/><path d="m1745.215332 826.891357h-212.033203l218.151611-824.09082h212.033203z"/></g><text font-family="Montserrat" font-size="225.982417" font-weight="300" letter-spacing=".198865" x="101" y="1077">N o r m a C o r e</text><path d="m1853.92981 957.03717c-33.219361 0-57.399537 24.63208-57.399537 59.207398 0 34.575256 24.180176 58.981384 57.399537 58.981384 18.756591 0 34.801269-7.005371 45.648437-18.75647l-5.423584-6.101562c-9.491211 10.395142-23.728149 16.270752-39.772827 16.270752-27.343872 0-47.230347-19.208496-48.586304-47.908325h102.822022c.677978-36.383118-20.112427-61.693177-54.687744-61.693177zm-47.908204 53.331849c2.259766-26.665894 21.468262-44.744507 47.908204-44.744507 26.891967 0 44.292602 18.078613 46.100463 44.744507zm-134.631347-23.502198v-29.603637h-9.491211v117.736816h9.491211v-63.727051c2.033813-27.343872 17.852661-44.518554 43.840576-44.518554v-9.717225c-21.016357.451966-36.383179 10.847168-43.840576 29.829651zm-170.110474-29.829651c-33.445434 0-58.077514 24.406128-58.077514 58.981446 0 34.801208 24.63208 59.207336 58.077514 59.207336 33.671387 0 58.077515-24.406128 58.077515-59.207336 0-34.575318-24.406128-58.981446-58.077515-58.981446zm0 9.039307c28.473755 0 48.812134 20.564392 48.812134 49.942139 0 29.829651-20.338379 50.394104-48.812134 50.394104-28.247803 0-48.812256-20.564453-48.812256-50.394104 0-29.377747 20.564453-49.942139 48.812256-49.942139zm-154.065796-20.790405 5.649536-7.231384c-14.688842-13.106995-34.349243-21.242371-55.591674-21.242371-44.970459 0-81.57959 35.253235-81.57959 79.093811s36.609131 79.319824 81.57959 79.319824c21.016357 0 41.128784-8.361328 55.817627-21.920288l-5.875489-6.553467c-13.333008 11.977051-30.959594 19.208496-49.716186 19.208496-39.99878 0-72.314331-31.411499-72.314331-70.280517 0-38.643006 32.315551-69.828552 72.314331-69.828552 18.756592 0 36.609253 7.231384 49.716186 19.434448zm-229.769897 129.713928-.451904-78.189941c-.226075-24.406067-15.366822-39.772889-43.162598-39.772889-17.852783 0-31.411621 6.553528-45.422608 16.722718l4.519776 7.231445c12.428955-9.491272 24.85791-15.366821 39.546875-15.366821 23.502197 0 35.027221 11.977051 35.253174 31.863525v11.525086h-41.806641c-27.11792 0-43.840637 11.977111-43.840637 31.637512 0 19.886474 15.592834 34.575317 38.868957 34.575317 20.338379 0 37.061158-7.231445 47.004395-23.502197l.225952 23.276245zm-55.139649-8.361328c-19.208496 0-31.185547-10.621216-31.185547-26.213989 0-15.14087 12.65503-23.050171 35.705079-23.050171h41.128906v19.208496c-7.231445 20.564331-23.728272 30.055664-45.648438 30.055664zm-185.929321-109.601502c-24.180115.451966-40.902832 12.203064-48.134277 34.123352-4.067688-21.468322-19.660462-34.123352-43.388611-34.123352-23.276184.451966-39.772888 11.073182-47.456299 31.185608v-30.959594h-9.26532v117.736816h9.26532v-57.625488c0-30.733643 16.722656-50.168091 44.970459-50.84607 23.502197 0 37.739075 14.236878 37.739075 38.416993v70.054565h9.26532v-57.625488c0-30.733643 16.496704-50.168091 44.744506-50.84607 23.72815 0 37.739075 14.236878 37.739075 38.416993v70.054565h9.265259v-71.862427c0-28.699768-16.496704-46.100403-44.744507-46.100403zm-286.039551 29.829651v-29.603637h-9.491211v117.736816h9.491211v-63.727051c2.033875-27.343872 17.852661-44.518554 43.840637-44.518554v-9.717225c-21.016418.451966-36.383178 10.847168-43.840637 29.829651zm-170.110504-29.829651c-33.445373 0-58.077484 24.406128-58.077484 58.981446 0 34.801208 24.632111 59.207336 58.077484 59.207336 33.671387 0 58.077484-24.406128 58.077484-59.207336 0-34.575318-24.406097-58.981446-58.077484-58.981446zm0 9.039307c28.473786 0 48.812225 20.564392 48.812225 49.942139 0 29.829651-20.338439 50.394104-48.812225 50.394104-28.247803 0-48.812195-20.564453-48.812195-50.394104 0-29.377747 20.564392-49.942139 48.812195-49.942139zm-290.107178-49.038208v157.961731h9.491257v-143.49884l105.307816 143.49884h11.073135v-157.961731h-9.265274v143.49884l-105.533798-143.49884z" fill-rule="evenodd"/></g></svg>