<svg height="827" viewBox="2.4 2.8 2243.96 826.61" width="2244" xmlns="http://www.w3.org/2000/svg"><g fill="#fff"><path d="m1305.799072 499.969116h164.945313c-3.328614 90.954956-84.911011 183.656616-107.411133 201.656616-22.5 17.999878-116.683716 79.166748-222.534302 79.166748-99.264404 0-180.380737-25.388427-243.189941-76.2229-82.740967-66.822388-124.073792-157.773926-124.073792-272.797119 0-117.65686 41.332825-209.928467 124.073792-276.812012 62.809204-50.773437 143.925537-76.2229 243.189941-76.2229 99.255371 0 188.034302 57.388183 227.034424 94.888183 38.999878 37.5 97.192261 112.173829 100.520752 187.018799h-164.945068s-27.825806-58.768799-62.325806-84.268921c-34.5-25.499878-100.284302-29.748413-100.284302-29.748413s-189.68042-11.208252-189.822998 185.145264c-.1427 196.353271 189.822998 189.463745 189.822998 189.463745s62.784302-4.589722 98.784424-31.475098c35.999878-26.885376 66.215698-89.791992 66.215698-89.791992z"/><path d="m214.441986 829.413452h-212.03331l218.151566-824.090942h212.033325z"/><path d="m502.324463 829.187012h-212.033325l218.15155-824.090821h212.033264z"/><path d="m2028.215332 826.891357h-212.033203l218.151611-824.09082h212.033203z"/><path d="m1748.215332 826.891357h-212.033203l218.151611-824.09082h212.033203z"/></g></svg>